<svg width="14" height="24" viewBox="0 0 14 24" fill="none" xmlns="http://www.w3.org/2000/svg">
<path d="M12.02 11.3498C11.41 10.2448 10.662 9.34978 9.91201 8.72578C9.01423 9.39171 7.9268 9.75266 6.80901 9.75578C5.69022 9.75309 4.60171 9.39213 3.70301 8.72578C2.95301 9.35078 2.20501 10.2458 1.59301 11.3488C0.170008 13.9108 0.0130076 16.5388 1.24301 17.2218C1.79301 17.5288 2.36901 17.2998 2.96501 16.7258C2.85422 17.3439 2.79867 17.9708 2.79901 18.5988C2.79901 21.5308 3.93901 23.9058 5.34201 23.9058C6.18801 23.9058 6.60701 23.0408 6.80801 21.7158C7.00801 23.0408 7.42801 23.9058 8.27001 23.9058C9.67601 23.9058 10.815 21.5308 10.815 18.5988C10.815 17.9388 10.755 17.3088 10.647 16.7258C11.244 17.2998 11.82 17.5288 12.371 17.2218C13.599 16.5398 13.441 13.9118 12.018 11.3478L12.02 11.3498ZM6.80801 8.75678C7.37006 8.75658 7.92658 8.64568 8.44578 8.43041C8.96498 8.21514 9.43669 7.89971 9.83399 7.50213C10.2313 7.10456 10.5464 6.63263 10.7613 6.11328C10.9762 5.59393 11.0867 5.03734 11.0865 4.47528C11.0863 3.91322 10.9754 3.3567 10.7601 2.83751C10.5449 2.31831 10.2294 1.8466 9.83186 1.4493C9.43429 1.052 8.96236 0.736907 8.44301 0.521999C7.92366 0.307091 7.36707 0.196581 6.80501 0.196778C6.24288 0.196975 5.6863 0.307888 5.16705 0.523185C4.64779 0.738482 4.17602 1.05395 3.77868 1.45157C2.97621 2.2546 2.52561 3.34352 2.52601 4.47878C2.52641 5.61404 2.97777 6.70264 3.7808 7.50511C4.58383 8.30758 5.67275 8.75818 6.80801 8.75778V8.75678Z" fill="black"/>
</svg>
