<svg width="114" height="46" viewBox="0 0 114 46" fill="none" xmlns="http://www.w3.org/2000/svg">
<g filter="url(#filter0_d_86_762)">
<rect x="4" width="106" height="38" rx="12" fill="#4A69E2" shape-rendering="crispEdges"/>
<path d="M21.188 23C21.1 23 21.028 22.972 20.972 22.916C20.916 22.86 20.888 22.788 20.888 22.7V14.9C20.888 14.812 20.916 14.74 20.972 14.684C21.028 14.628 21.1 14.6 21.188 14.6H22.28C22.4 14.6 22.488 14.628 22.544 14.684C22.6 14.74 22.636 14.784 22.652 14.816L25.856 19.82V14.9C25.856 14.812 25.884 14.74 25.94 14.684C25.996 14.628 26.064 14.6 26.144 14.6H27.368C27.456 14.6 27.528 14.628 27.584 14.684C27.64 14.74 27.668 14.812 27.668 14.9V22.7C27.668 22.78 27.64 22.852 27.584 22.916C27.528 22.972 27.456 23 27.368 23H26.264C26.144 23 26.056 22.972 26 22.916C25.952 22.852 25.916 22.808 25.892 22.784L22.7 17.936V22.7C22.7 22.788 22.672 22.86 22.616 22.916C22.56 22.972 22.488 23 22.4 23H21.188ZM32.0947 23.12C31.1747 23.12 30.4427 22.864 29.8987 22.352C29.3627 21.84 29.0787 21.096 29.0467 20.12C29.0467 20.056 29.0467 19.972 29.0467 19.868C29.0467 19.756 29.0467 19.668 29.0467 19.604C29.0787 18.988 29.2187 18.46 29.4667 18.02C29.7147 17.572 30.0627 17.232 30.5107 17C30.9587 16.76 31.4827 16.64 32.0827 16.64C32.7547 16.64 33.3147 16.78 33.7627 17.06C34.2187 17.332 34.5587 17.708 34.7827 18.188C35.0147 18.66 35.1307 19.204 35.1307 19.82V20.096C35.1307 20.176 35.0987 20.244 35.0347 20.3C34.9787 20.356 34.9107 20.384 34.8307 20.384H30.9067C30.9067 20.392 30.9067 20.408 30.9067 20.432C30.9067 20.448 30.9067 20.464 30.9067 20.48C30.9147 20.736 30.9627 20.972 31.0507 21.188C31.1467 21.396 31.2787 21.564 31.4467 21.692C31.6227 21.82 31.8307 21.884 32.0707 21.884C32.2707 21.884 32.4347 21.856 32.5627 21.8C32.6907 21.744 32.7947 21.676 32.8747 21.596C32.9627 21.516 33.0267 21.448 33.0667 21.392C33.1387 21.312 33.1947 21.264 33.2347 21.248C33.2827 21.224 33.3547 21.212 33.4507 21.212H34.6987C34.7787 21.212 34.8427 21.236 34.8907 21.284C34.9467 21.324 34.9707 21.384 34.9627 21.464C34.9547 21.592 34.8867 21.752 34.7587 21.944C34.6387 22.128 34.4587 22.312 34.2187 22.496C33.9787 22.672 33.6787 22.82 33.3187 22.94C32.9667 23.06 32.5587 23.12 32.0947 23.12ZM30.9067 19.292H33.2587V19.268C33.2587 18.98 33.2107 18.732 33.1147 18.524C33.0267 18.308 32.8947 18.14 32.7187 18.02C32.5427 17.9 32.3307 17.84 32.0827 17.84C31.8347 17.84 31.6227 17.9 31.4467 18.02C31.2707 18.14 31.1347 18.308 31.0387 18.524C30.9507 18.732 30.9067 18.98 30.9067 19.268V19.292ZM37.8587 23C37.7467 23 37.6587 22.972 37.5947 22.916C37.5387 22.86 37.4947 22.788 37.4627 22.7L35.7467 17.144C35.7307 17.104 35.7227 17.064 35.7227 17.024C35.7227 16.952 35.7467 16.892 35.7947 16.844C35.8507 16.788 35.9147 16.76 35.9867 16.76H37.0427C37.1467 16.76 37.2267 16.788 37.2827 16.844C37.3387 16.9 37.3747 16.952 37.3907 17L38.4827 20.708L39.6467 17.024C39.6627 16.968 39.6987 16.912 39.7547 16.856C39.8187 16.792 39.9067 16.76 40.0187 16.76H40.7027C40.8147 16.76 40.8987 16.792 40.9547 16.856C41.0187 16.912 41.0587 16.968 41.0747 17.024L42.2387 20.708L43.3307 17C43.3387 16.952 43.3707 16.9 43.4267 16.844C43.4907 16.788 43.5707 16.76 43.6667 16.76H44.7227C44.7947 16.76 44.8547 16.788 44.9027 16.844C44.9587 16.892 44.9867 16.952 44.9867 17.024C44.9867 17.064 44.9827 17.104 44.9747 17.144L43.2467 22.7C43.2227 22.788 43.1787 22.86 43.1147 22.916C43.0587 22.972 42.9747 23 42.8627 23H41.9387C41.8267 23 41.7387 22.972 41.6747 22.916C41.6107 22.86 41.5627 22.788 41.5307 22.7L40.3667 19.148L39.1787 22.7C39.1547 22.788 39.1107 22.86 39.0467 22.916C38.9827 22.972 38.8947 23 38.7827 23L37.8587 23ZM48.9028 23C48.8148 23 48.7428 22.972 48.6868 22.916C48.6308 22.86 48.6028 22.788 48.6028 22.7V14.9C48.6028 14.812 48.6308 14.74 48.6868 14.684C48.7428 14.628 48.8148 14.6 48.9028 14.6L52.0828 14.6C53.0828 14.6 53.8708 14.832 54.4468 15.296C55.0228 15.752 55.3108 16.412 55.3108 17.276C55.3108 17.86 55.1708 18.348 54.8908 18.74C54.6108 19.132 54.2348 19.424 53.7628 19.616L55.4548 22.616C55.4788 22.664 55.4908 22.708 55.4908 22.748C55.4908 22.812 55.4668 22.872 55.4188 22.928C55.3708 22.976 55.3108 23 55.2388 23H53.9068C53.7628 23 53.6548 22.964 53.5828 22.892C53.5108 22.812 53.4588 22.74 53.4268 22.676L51.9628 19.928H50.5108V22.7C50.5108 22.788 50.4828 22.86 50.4268 22.916C50.3708 22.972 50.2988 23 50.2108 23L48.9028 23ZM50.5108 18.404H52.0468C52.4868 18.404 52.8108 18.304 53.0188 18.104C53.2348 17.904 53.3428 17.624 53.3428 17.264C53.3428 16.904 53.2388 16.62 53.0308 16.412C52.8228 16.204 52.4948 16.1 52.0468 16.1H50.5108V18.404ZM59.3525 23.12C58.4325 23.12 57.7005 22.864 57.1565 22.352C56.6205 21.84 56.3365 21.096 56.3045 20.12C56.3045 20.056 56.3045 19.972 56.3045 19.868C56.3045 19.756 56.3045 19.668 56.3045 19.604C56.3365 18.988 56.4765 18.46 56.7245 18.02C56.9725 17.572 57.3205 17.232 57.7685 17C58.2165 16.76 58.7405 16.64 59.3405 16.64C60.0125 16.64 60.5725 16.78 61.0205 17.06C61.4765 17.332 61.8165 17.708 62.0405 18.188C62.2725 18.66 62.3885 19.204 62.3885 19.82V20.096C62.3885 20.176 62.3565 20.244 62.2925 20.3C62.2365 20.356 62.1685 20.384 62.0885 20.384H58.1645C58.1645 20.392 58.1645 20.408 58.1645 20.432C58.1645 20.448 58.1645 20.464 58.1645 20.48C58.1725 20.736 58.2205 20.972 58.3085 21.188C58.4045 21.396 58.5365 21.564 58.7045 21.692C58.8805 21.82 59.0885 21.884 59.3285 21.884C59.5285 21.884 59.6925 21.856 59.8205 21.8C59.9485 21.744 60.0525 21.676 60.1325 21.596C60.2205 21.516 60.2845 21.448 60.3245 21.392C60.3965 21.312 60.4525 21.264 60.4925 21.248C60.5405 21.224 60.6125 21.212 60.7085 21.212H61.9565C62.0365 21.212 62.1005 21.236 62.1485 21.284C62.2045 21.324 62.2285 21.384 62.2205 21.464C62.2125 21.592 62.1445 21.752 62.0165 21.944C61.8965 22.128 61.7165 22.312 61.4765 22.496C61.2365 22.672 60.9365 22.82 60.5765 22.94C60.2245 23.06 59.8165 23.12 59.3525 23.12ZM58.1645 19.292H60.5165V19.268C60.5165 18.98 60.4685 18.732 60.3725 18.524C60.2845 18.308 60.1525 18.14 59.9765 18.02C59.8005 17.9 59.5885 17.84 59.3405 17.84C59.0925 17.84 58.8805 17.9 58.7045 18.02C58.5285 18.14 58.3925 18.308 58.2965 18.524C58.2085 18.732 58.1645 18.98 58.1645 19.268V19.292ZM63.888 23C63.8 23 63.728 22.972 63.672 22.916C63.616 22.86 63.588 22.788 63.588 22.7V14.78C63.588 14.692 63.616 14.62 63.672 14.564C63.728 14.508 63.8 14.48 63.888 14.48H65.088C65.168 14.48 65.236 14.508 65.292 14.564C65.348 14.62 65.376 14.692 65.376 14.78V22.7C65.376 22.788 65.348 22.86 65.292 22.916C65.236 22.972 65.168 23 65.088 23H63.888ZM69.6767 23.12C68.7567 23.12 68.0247 22.864 67.4807 22.352C66.9447 21.84 66.6607 21.096 66.6287 20.12C66.6287 20.056 66.6287 19.972 66.6287 19.868C66.6287 19.756 66.6287 19.668 66.6287 19.604C66.6607 18.988 66.8007 18.46 67.0487 18.02C67.2967 17.572 67.6447 17.232 68.0927 17C68.5407 16.76 69.0647 16.64 69.6647 16.64C70.3367 16.64 70.8967 16.78 71.3447 17.06C71.8007 17.332 72.1407 17.708 72.3647 18.188C72.5967 18.66 72.7127 19.204 72.7127 19.82V20.096C72.7127 20.176 72.6807 20.244 72.6167 20.3C72.5607 20.356 72.4927 20.384 72.4127 20.384H68.4887C68.4887 20.392 68.4887 20.408 68.4887 20.432C68.4887 20.448 68.4887 20.464 68.4887 20.48C68.4967 20.736 68.5447 20.972 68.6327 21.188C68.7287 21.396 68.8607 21.564 69.0287 21.692C69.2047 21.82 69.4127 21.884 69.6527 21.884C69.8527 21.884 70.0167 21.856 70.1447 21.8C70.2727 21.744 70.3767 21.676 70.4567 21.596C70.5447 21.516 70.6087 21.448 70.6487 21.392C70.7207 21.312 70.7767 21.264 70.8167 21.248C70.8647 21.224 70.9367 21.212 71.0327 21.212H72.2807C72.3607 21.212 72.4247 21.236 72.4727 21.284C72.5287 21.324 72.5527 21.384 72.5447 21.464C72.5367 21.592 72.4687 21.752 72.3407 21.944C72.2207 22.128 72.0407 22.312 71.8007 22.496C71.5607 22.672 71.2607 22.82 70.9007 22.94C70.5487 23.06 70.1407 23.12 69.6767 23.12ZM68.4887 19.292H70.8407V19.268C70.8407 18.98 70.7927 18.732 70.6967 18.524C70.6087 18.308 70.4767 18.14 70.3007 18.02C70.1247 17.9 69.9127 17.84 69.6647 17.84C69.4167 17.84 69.2047 17.9 69.0287 18.02C68.8527 18.14 68.7167 18.308 68.6207 18.524C68.5327 18.732 68.4887 18.98 68.4887 19.268V19.292ZM75.7483 23.12C75.3243 23.12 74.9443 23.04 74.6083 22.88C74.2723 22.712 74.0043 22.488 73.8043 22.208C73.6043 21.928 73.5043 21.616 73.5043 21.272C73.5043 20.704 73.7323 20.256 74.1883 19.928C74.6523 19.6 75.2603 19.376 76.0123 19.256L77.5843 19.028V18.812C77.5843 18.5 77.5123 18.26 77.3683 18.092C77.2243 17.924 76.9723 17.84 76.6123 17.84C76.3483 17.84 76.1363 17.892 75.9763 17.996C75.8163 18.1 75.6923 18.236 75.6043 18.404C75.5403 18.508 75.4483 18.56 75.3283 18.56H74.1883C74.1003 18.56 74.0323 18.536 73.9843 18.488C73.9363 18.432 73.9163 18.368 73.9243 18.296C73.9243 18.16 73.9763 18 74.0803 17.816C74.1843 17.632 74.3443 17.452 74.5603 17.276C74.7763 17.092 75.0523 16.94 75.3883 16.82C75.7243 16.7 76.1363 16.64 76.6243 16.64C77.1283 16.64 77.5603 16.7 77.9203 16.82C78.2803 16.94 78.5683 17.108 78.7843 17.324C79.0003 17.54 79.1603 17.792 79.2643 18.08C79.3683 18.36 79.4203 18.664 79.4203 18.992V22.7C79.4203 22.788 79.3923 22.86 79.3363 22.916C79.2803 22.972 79.2083 23 79.1203 23H77.9443C77.8643 23 77.7963 22.972 77.7403 22.916C77.6843 22.86 77.6563 22.788 77.6563 22.7V22.256C77.5523 22.408 77.4123 22.552 77.2363 22.688C77.0603 22.816 76.8483 22.92 76.6003 23C76.3602 23.08 76.0763 23.12 75.7483 23.12ZM76.2283 21.872C76.4923 21.872 76.7283 21.816 76.9363 21.704C77.1443 21.592 77.3083 21.42 77.4283 21.188C77.5483 20.956 77.6083 20.664 77.6083 20.312V20.108L76.4923 20.288C76.0603 20.36 75.7443 20.468 75.5443 20.612C75.3443 20.756 75.2443 20.932 75.2443 21.14C75.2443 21.292 75.2883 21.424 75.3763 21.536C75.4723 21.648 75.5963 21.732 75.7483 21.788C75.9003 21.844 76.0603 21.872 76.2283 21.872ZM83.3332 23.12C82.8372 23.12 82.4092 23.064 82.0492 22.952C81.6972 22.832 81.4092 22.688 81.1852 22.52C80.9692 22.352 80.8052 22.184 80.6932 22.016C80.5892 21.84 80.5332 21.692 80.5252 21.572C80.5172 21.484 80.5452 21.412 80.6092 21.356C80.6732 21.3 80.7372 21.272 80.8012 21.272H81.9652C81.9892 21.272 82.0132 21.276 82.0372 21.284C82.0612 21.292 82.0852 21.312 82.1092 21.344C82.2132 21.416 82.3212 21.5 82.4332 21.596C82.5452 21.684 82.6732 21.76 82.8172 21.824C82.9692 21.888 83.1572 21.92 83.3812 21.92C83.6452 21.92 83.8692 21.868 84.0532 21.764C84.2372 21.652 84.3292 21.496 84.3292 21.296C84.3292 21.152 84.2852 21.032 84.1972 20.936C84.1172 20.84 83.9612 20.752 83.7292 20.672C83.4972 20.592 83.1532 20.504 82.6972 20.408C82.2652 20.312 81.8972 20.184 81.5932 20.024C81.2892 19.864 81.0612 19.664 80.9092 19.424C80.7572 19.176 80.6812 18.88 80.6812 18.536C80.6812 18.224 80.7772 17.924 80.9692 17.636C81.1692 17.348 81.4612 17.112 81.8452 16.928C82.2292 16.736 82.7092 16.64 83.2852 16.64C83.7252 16.64 84.1092 16.696 84.4372 16.808C84.7732 16.912 85.0532 17.048 85.2772 17.216C85.5012 17.376 85.6692 17.544 85.7812 17.72C85.9012 17.888 85.9652 18.036 85.9732 18.164C85.9812 18.244 85.9572 18.312 85.9012 18.368C85.8452 18.424 85.7812 18.452 85.7092 18.452H84.6412C84.6012 18.452 84.5652 18.448 84.5332 18.44C84.5012 18.424 84.4732 18.404 84.4492 18.38C84.3532 18.316 84.2532 18.244 84.1492 18.164C84.0532 18.076 83.9372 18 83.8012 17.936C83.6652 17.872 83.4892 17.84 83.2732 17.84C83.0092 17.84 82.8052 17.9 82.6612 18.02C82.5252 18.132 82.4572 18.276 82.4572 18.452C82.4572 18.564 82.4932 18.668 82.5652 18.764C82.6372 18.86 82.7852 18.948 83.0092 19.028C83.2332 19.108 83.5732 19.192 84.0292 19.28C84.5732 19.376 85.0052 19.52 85.3252 19.712C85.6452 19.904 85.8732 20.128 86.0092 20.384C86.1532 20.632 86.2252 20.9 86.2252 21.188C86.2252 21.564 86.1132 21.9 85.8892 22.196C85.6652 22.484 85.3372 22.712 84.9052 22.88C84.4812 23.04 83.9572 23.12 83.3332 23.12ZM90.1611 23.12C89.2411 23.12 88.5091 22.864 87.9651 22.352C87.4291 21.84 87.1451 21.096 87.1131 20.12C87.1131 20.056 87.1131 19.972 87.1131 19.868C87.1131 19.756 87.1131 19.668 87.1131 19.604C87.1451 18.988 87.2851 18.46 87.5331 18.02C87.7811 17.572 88.1291 17.232 88.5771 17C89.0251 16.76 89.5491 16.64 90.1491 16.64C90.8211 16.64 91.3811 16.78 91.8291 17.06C92.2851 17.332 92.6251 17.708 92.8491 18.188C93.0811 18.66 93.1971 19.204 93.1971 19.82V20.096C93.1971 20.176 93.1651 20.244 93.1011 20.3C93.0451 20.356 92.9771 20.384 92.8971 20.384H88.9731C88.9731 20.392 88.9731 20.408 88.9731 20.432C88.9731 20.448 88.9731 20.464 88.9731 20.48C88.9811 20.736 89.0291 20.972 89.1171 21.188C89.2131 21.396 89.3451 21.564 89.5131 21.692C89.6891 21.82 89.8971 21.884 90.1371 21.884C90.3371 21.884 90.5011 21.856 90.6291 21.8C90.7571 21.744 90.8611 21.676 90.9411 21.596C91.0291 21.516 91.0931 21.448 91.1331 21.392C91.2051 21.312 91.2611 21.264 91.3011 21.248C91.3491 21.224 91.4211 21.212 91.5171 21.212H92.7651C92.8451 21.212 92.9091 21.236 92.9571 21.284C93.0131 21.324 93.0371 21.384 93.0291 21.464C93.0211 21.592 92.9531 21.752 92.8251 21.944C92.7051 22.128 92.5251 22.312 92.2851 22.496C92.0451 22.672 91.7451 22.82 91.3851 22.94C91.0331 23.06 90.6251 23.12 90.1611 23.12ZM88.9731 19.292H91.3251V19.268C91.3251 18.98 91.2771 18.732 91.1811 18.524C91.0931 18.308 90.9611 18.14 90.7851 18.02C90.6091 17.9 90.3971 17.84 90.1491 17.84C89.9011 17.84 89.6891 17.9 89.5131 18.02C89.3371 18.14 89.2011 18.308 89.1051 18.524C89.0171 18.732 88.9731 18.98 88.9731 19.268V19.292Z" fill="white"/>
</g>
<defs>
<filter id="filter0_d_86_762" x="0" y="0" width="114" height="46" filterUnits="userSpaceOnUse" color-interpolation-filters="sRGB">
<feFlood flood-opacity="0" result="BackgroundImageFix"/>
<feColorMatrix in="SourceAlpha" type="matrix" values="0 0 0 0 0 0 0 0 0 0 0 0 0 0 0 0 0 0 127 0" result="hardAlpha"/>
<feOffset dy="4"/>
<feGaussianBlur stdDeviation="2"/>
<feComposite in2="hardAlpha" operator="out"/>
<feColorMatrix type="matrix" values="0 0 0 0 0 0 0 0 0 0 0 0 0 0 0 0 0 0 0.25 0"/>
<feBlend mode="normal" in2="BackgroundImageFix" result="effect1_dropShadow_86_762"/>
<feBlend mode="normal" in="SourceGraphic" in2="effect1_dropShadow_86_762" result="shape"/>
</filter>
</defs>
</svg>
